<?xml version="1.0" encoding="utf-8"?>
<!-- Generator: Adobe Illustrator 17.0.0, SVG Export Plug-In . SVG Version: 6.00 Build 0)  -->
<!DOCTYPE svg PUBLIC "-//W3C//DTD SVG 1.1//EN" "http://www.w3.org/Graphics/SVG/1.1/DTD/svg11.dtd">
<svg version="1.1" id="Capa_1" xmlns="http://www.w3.org/2000/svg" xmlns:xlink="http://www.w3.org/1999/xlink" x="0px" y="0px"
	 width="24px" height="24px" viewBox="0 0 24 24" enable-background="new 0 0 24 24" xml:space="preserve">
<path fill="#1B3F82" d="M11,7h2v10h-2V7z M15,11h2v6h-2V11z M7,13h2v4H7V13z M15,4H5v16h14V8h-4V4z M3,2.992
	C3,2.444,3.447,2,3.999,2H16l5,5v13.993c0.001,0.131-0.024,0.261-0.073,0.383s-0.122,0.233-0.215,0.326
	c-0.092,0.094-0.202,0.168-0.323,0.219c-0.121,0.051-0.251,0.078-0.382,0.079H3.993c-0.263-0.002-0.514-0.107-0.7-0.292
	S3.002,21.271,3,21.008V2.992z"/>
</svg>
