<?xml version="1.0" encoding="utf-8"?>
<!-- Generator: Adobe Illustrator 17.0.0, SVG Export Plug-In . SVG Version: 6.00 Build 0)  -->
<!DOCTYPE svg PUBLIC "-//W3C//DTD SVG 1.1//EN" "http://www.w3.org/Graphics/SVG/1.1/DTD/svg11.dtd">
<svg version="1.1" id="Capa_1" xmlns="http://www.w3.org/2000/svg" xmlns:xlink="http://www.w3.org/1999/xlink" x="0px" y="0px"
	 width="24px" height="24px" viewBox="0 0 24 24" enable-background="new 0 0 24 24" xml:space="preserve">
<path fill="#1B3F82" d="M9.96,11.31C10.82,8.1,11.5,6,13,6s2.18,2.1,3.04,5.31C17,14.92,18.1,19,22,19v-2c-2.2,0-3-2.46-4.03-6.2
	C17.08,7.46,16.15,4,13,4s-4.08,3.46-4.97,6.8C7.03,14.54,6.2,17,4,17V2H2v20h20v-2H4v-1C7.9,19,9,14.92,9.96,11.31L9.96,11.31z"/>
</svg>
