<?xml version="1.0" encoding="utf-8"?>
<!-- Generator: Adobe Illustrator 17.0.0, SVG Export Plug-In . SVG Version: 6.00 Build 0)  -->
<!DOCTYPE svg PUBLIC "-//W3C//DTD SVG 1.1//EN" "http://www.w3.org/Graphics/SVG/1.1/DTD/svg11.dtd">
<svg version="1.1" id="Capa_1" xmlns="http://www.w3.org/2000/svg" xmlns:xlink="http://www.w3.org/1999/xlink" x="0px" y="0px"
	 width="280px" height="240px" viewBox="0 0 280 240" enable-background="new 0 0 280 240" xml:space="preserve">
<path fill="#D9DADC" d="M0,183.902h64.68v-17.186H0V183.902z"/>
<path fill="#D9DADC" d="M280,166.716h-63.949v17.186H280V166.716z"/>
<path fill="#D9DADC" d="M167.25,64.552V51.774c-12.352-3.129-33.786-6.737-53.418-1.1v19.033h5.377
	c0.469-0.87,0.985-1.761,1.612-2.689C120.821,67.018,138.88,53.7,167.25,64.552z"/>
<path fill="#D9DADC" d="M188.197,107.43c0,0-11.235-8.079-46.939-12.072c0,0-25.897-4.458-24.091-19.56l-0.108-0.023v19.536
	c0,0,7.184,17.543,41.529,18.198c33.074,0.642,62.931,26.776,62.446,37.761C223.021,136.191,215.906,120.19,188.197,107.43z"/>
<path fill="#D9DADC" d="M173.475,147.217c-1.781,10.995-15.555,20.714-23.955,21.857c0,0-14.982,3.704-37.811-2.358
	c-13.045-3.474-29.009-10.533-47.028-24.254c0,0-3.386,3.071-3.498,10.016v0.002c0,0,45.589,32.767,79.937,29.73
	C166.88,179.933,175.146,168.129,173.475,147.217z"/>
<path fill="#1B3F82" d="M167.25,51.774L139.993,24l-26.161,26.674C133.465,45.036,154.898,48.645,167.25,51.774z"/>
<path fill="#1B3F82" d="M197.751,82.872V82.87c-10.13-8.418-19.481-13.919-27.929-17.382c-30.41-12.466-49.001,1.53-49.001,1.53
	c-0.627,0.927-1.143,1.818-1.612,2.689c-1.17,2.2-1.821,4.228-2.042,6.091c-1.806,15.101,24.091,19.56,24.091,19.56
	c35.704,3.993,46.939,12.072,46.939,12.072c27.709,12.758,34.824,28.761,32.837,43.839c-0.694,5.33-2.516,10.537-4.983,15.447H280
	L197.751,82.872z"/>
<path fill="#1B3F82" d="M111.708,166.716c-13.045-3.474-29.009-10.532-47.028-24.254c0,0-3.386,3.071-3.498,10.015
	c-0.056,3.637,0.778,8.333,3.498,14.239H0l77.701-79.21c2.649,8.442,16.331,26.061,81.429,40.811c0,0,16.724,4.203,14.343,18.9
	c-1.78,10.991-14.977,20.81-23.953,21.857C149.52,169.074,134.537,172.778,111.708,166.716z"/>
<path fill="#1B3F82" d="M81.704,215.731h-3.929l-1.562-3.462h-7.148l-1.475,3.462h-3.83l6.965-15.24h3.818L81.704,215.731z
	 M75.056,209.702l-2.465-5.655l-2.416,5.655H75.056z"/>
<path fill="#1B3F82" d="M96.671,215.731v-15.112h3.608v12.545h8.979v2.567H96.671z"/>
<path fill="#1B3F82" d="M124.348,210.774l3.512-0.293c0.213,1.007,0.641,1.742,1.287,2.214c0.646,0.471,1.518,0.71,2.615,0.71
	c1.163,0,2.04-0.213,2.63-0.632c0.59-0.417,0.885-0.908,0.885-1.47c0-0.361-0.124-0.67-0.373-0.92
	c-0.244-0.252-0.679-0.473-1.297-0.66c-0.424-0.122-1.385-0.348-2.893-0.667c-1.935-0.406-3.293-0.911-4.074-1.506
	c-1.097-0.836-1.646-1.863-1.646-3.066c0-0.776,0.257-1.503,0.773-2.177c0.516-0.679,1.261-1.191,2.232-1.547
	c0.973-0.355,2.147-0.529,3.521-0.529c2.244,0,3.934,0.42,5.067,1.259c1.135,0.836,1.73,1.957,1.788,3.356l-3.609,0.136
	c-0.155-0.783-0.488-1.348-0.997-1.689c-0.508-0.344-1.269-0.515-2.284-0.515c-1.051,0-1.872,0.185-2.467,0.55
	c-0.38,0.234-0.572,0.551-0.572,0.948c0,0.358,0.18,0.667,0.539,0.925c0.453,0.325,1.56,0.667,3.314,1.022
	c1.757,0.348,3.056,0.716,3.899,1.093c0.841,0.377,1.498,0.892,1.975,1.55c0.476,0.654,0.714,1.464,0.714,2.425
	c0,0.873-0.285,1.691-0.855,2.454c-0.567,0.763-1.374,1.33-2.415,1.702c-1.042,0.368-2.337,0.553-3.892,0.553
	c-2.259,0-3.995-0.444-5.209-1.334C125.307,213.775,124.582,212.476,124.348,210.774z"/>
<path fill="#1B3F82" d="M155.784,200.491h3.609v8.253c0,1.311,0.046,2.16,0.135,2.547c0.156,0.625,0.522,1.124,1.104,1.501
	c0.581,0.382,1.376,0.567,2.383,0.567c1.028,0,1.797-0.176,2.319-0.536c0.52-0.357,0.833-0.794,0.94-1.313
	c0.104-0.52,0.158-1.382,0.158-2.589v-8.431h3.612v8.007c0,1.828-0.097,3.121-0.293,3.874c-0.195,0.758-0.557,1.395-1.081,1.917
	c-0.524,0.517-1.224,0.929-2.101,1.24c-0.881,0.31-2.028,0.462-3.443,0.462c-1.707,0-3.003-0.167-3.886-0.504
	c-0.88-0.337-1.576-0.77-2.091-1.308c-0.513-0.54-0.849-1.1-1.012-1.69c-0.234-0.877-0.352-2.164-0.352-3.869L155.784,200.491z"/>
<path fill="#1B3F82" d="M187.743,215.731v-15.24h7.598c1.91,0,3.301,0.136,4.169,0.412c0.864,0.272,1.558,0.759,2.079,1.457
	c0.518,0.704,0.777,1.503,0.777,2.404c0,1.142-0.392,2.084-1.183,2.832c-0.788,0.745-1.969,1.214-3.538,1.407
	c0.783,0.391,1.426,0.817,1.935,1.281c0.51,0.459,1.192,1.287,2.057,2.474l2.184,2.972H199.5l-2.61-3.315
	c-0.925-1.184-1.56-1.934-1.901-2.24c-0.342-0.308-0.705-0.519-1.087-0.634c-0.383-0.118-0.988-0.173-1.816-0.173h-0.733v6.362
	L187.743,215.731z M194.024,206.936c1.733,0,2.814-0.063,3.245-0.185c0.431-0.125,0.771-0.342,1.012-0.647
	c0.246-0.304,0.367-0.688,0.367-1.14c0-0.515-0.16-0.93-0.482-1.245c-0.322-0.316-0.777-0.515-1.361-0.597
	c-0.294-0.036-1.171-0.052-2.635-0.052h-2.819v3.866H194.024z"/>
<path fill="#1B3F82" d="M212.836,195.75v-2.514h1.653c0.843,0,1.738,0.192,1.738,1.196c0,1.241-0.925,1.318-1.94,1.318H212.836z
	 M212.836,196.79h1.386l2.104,3.523h1.361l-2.27-3.582c1.174-0.138,2.055-0.779,2.055-2.233c0-1.594-0.929-2.307-2.799-2.307h-3.037
	v8.12h1.2V196.79L212.836,196.79z M214.312,203.293c3.748,0,6.966-2.98,6.966-7.053c0-4.049-3.218-7.027-6.966-7.027
	c-3.807,0-7.021,2.978-7.021,7.027C207.291,200.313,210.504,203.293,214.312,203.293z M208.685,196.24
	c0-3.338,2.456-5.854,5.626-5.854c3.106,0,5.58,2.516,5.58,5.854c0,3.387-2.474,5.875-5.58,5.875
	C211.142,202.115,208.685,199.627,208.685,196.24z"/>
</svg>
